<mxfile host="app.diagrams.net" modified="2023-07-20T03:16:50.969Z" agent="Mozilla/5.0 (Macintosh; Intel Mac OS X 10_15_7) AppleWebKit/537.36 (KHTML, like Gecko) Chrome/114.0.0.0 Safari/537.36" version="21.6.3" etag="k9-SENHhl1vvFhA7s_uY" type="github">
  <diagram name="Page-1" id="rXrgW5Pm1nHmK2AnbiyN">
    <mxGraphModel>
      <root>
        <mxCell id="0" />
        <mxCell id="1" parent="0" />
      </root>
    </mxGraphModel>
  </diagram>
</mxfile>
